<svg width="200" height="200" viewBox="0 0 200 200" xmlns="http://www.w3.org/2000/svg">
  <!-- Head silhouette -->
  <path d="M50 80 C50 40, 80 20, 120 20 C160 20, 180 40, 180 80 L180 120 C180 140, 170 160, 150 170 L150 180 C150 185, 145 190, 140 190 L80 190 C75 190, 70 185, 70 180 L70 170 C50 160, 40 140, 40 120 L40 100 C40 90, 45 85, 50 80 Z" fill="#A855F7"/>
  
  <!-- Brain -->
  <g transform="translate(80, 50)">
    <!-- Main brain shape -->
    <path d="M20 10 C10 10, 5 15, 5 25 C5 30, 7 35, 10 38 C8 40, 7 43, 7 46 C7 52, 12 57, 18 57 C20 57, 22 56, 23 55 C24 56, 26 57, 28 57 C34 57, 39 52, 39 46 C39 43, 38 40, 36 38 C39 35, 41 30, 41 25 C41 15, 36 10, 26 10 Z" fill="#1A1A1A"/>
    
    <!-- Brain folds and details -->
    <path d="M15 18 C13 18, 12 19, 12 21 C12 22, 13 23, 15 23 C16 23, 17 22, 17 21 C17 19, 16 18, 15 18 Z" fill="#2D2D2D"/>
    <path d="M25 18 C23 18, 22 19, 22 21 C22 22, 23 23, 25 23 C26 23, 27 22, 27 21 C27 19, 26 18, 25 18 Z" fill="#2D2D2D"/>
    
    <!-- Additional brain structure -->
    <path d="M10 28 C12 30, 15 32, 18 32 C20 32, 22 31, 23 30" stroke="#2D2D2D" stroke-width="1" fill="none"/>
    <path d="M25 30 C27 31, 29 32, 31 30" stroke="#2D2D2D" stroke-width="1" fill="none"/>
    
    <!-- Brain stem -->
    <ellipse cx="20" cy="45" rx="3" ry="8" fill="#1A1A1A"/>
  </g>
</svg>