<svg width="64" height="64" viewBox="0 0 64 64" fill="none" xmlns="http://www.w3.org/2000/svg">
  <circle cx="32" cy="32" r="32" fill="#4A5568"/>
  <g transform="translate(18, 14)">
    <path d="M14 8C16.2 8 18 9.8 18 12C18 14.2 16.2 16 14 16C11.8 16 10 14.2 10 12C10 9.8 11.8 8 14 8Z" fill="white"/>
    <path d="M14 4C18.4 4 22 7.6 22 12C22 16.4 18.4 20 14 20C12.9 20 12 20.9 12 22C12 23.1 11.1 24 10 24C8.9 24 8 23.1 8 22C8 18.7 10.7 16 14 16C16.2 16 18 14.2 18 12C18 9.8 16.2 8 14 8C11.8 8 10 9.8 10 12" stroke="white" stroke-width="2" fill="none"/>
    <circle cx="6" cy="8" r="1" fill="white"/>
    <circle cx="4" cy="12" r="1" fill="white"/>
    <circle cx="6" cy="16" r="1" fill="white"/>
  </g>
</svg>